<svg width="20" height="20" viewBox="0 0 20 20" fill="none" xmlns="http://www.w3.org/2000/svg">
<g clip-path="url(#clip0_81_622)">
<path d="M0.841192 6.15307L9.25964 0.692088C9.45117 0.520215 9.70206 0.424805 9.96247 0.424805C10.2229 0.424805 10.4738 0.520215 10.6653 0.692088L19.1559 6.15352C19.2807 6.2337 19.3831 6.34284 19.4539 6.47114C19.5247 6.59943 19.5616 6.74286 19.5614 6.88851V18.6176C19.5614 18.7429 19.5361 18.867 19.4868 18.9828C19.4376 19.0986 19.3654 19.2038 19.2744 19.2924C19.1834 19.381 19.0754 19.4513 18.9565 19.4992C18.8376 19.5471 18.7102 19.5717 18.5816 19.5717H1.41742C1.15783 19.5714 0.908959 19.4708 0.725491 19.2919C0.542023 19.113 0.438965 18.8705 0.438965 18.6176V6.8853C0.438929 6.74042 0.475626 6.59777 0.545796 6.47003C0.615965 6.34229 0.717436 6.23341 0.841192 6.15307Z" fill="white"/>
<path d="M18.5816 20.0001H1.41746C1.04151 19.9994 0.681195 19.8534 0.415493 19.5943C0.14979 19.3352 0.0003746 18.9841 8.95311e-07 18.6178V6.88556C-0.000254693 6.67025 0.0542164 6.45823 0.158548 6.26842C0.262879 6.07861 0.413827 5.91692 0.597919 5.79777L8.99137 0.353795C9.26112 0.125932 9.60618 0.000488281 9.96321 0.000488281C10.3203 0.000488281 10.6653 0.125932 10.9351 0.353795L19.3988 5.79823C19.5839 5.91696 19.7358 6.07867 19.8408 6.26879C19.9458 6.45891 20.0007 6.67149 20.0005 6.8874V18.6178C20.0001 18.9843 19.8505 19.3357 19.5845 19.5948C19.3185 19.854 18.9578 19.9997 18.5816 20.0001ZM0.841233 6.15333L1.08455 6.50934C1.02084 6.55052 0.968595 6.60644 0.932473 6.67209C0.896352 6.73773 0.877482 6.81108 0.877543 6.88556V18.6178C0.877792 18.7575 0.934854 18.8914 1.03623 18.9901C1.13761 19.0889 1.27503 19.1445 1.4184 19.1447H18.5825C18.7258 19.1444 18.863 19.0887 18.9642 18.99C19.0654 18.8912 19.1223 18.7574 19.1224 18.6178V6.8874C19.1226 6.81274 19.1036 6.73922 19.0673 6.67346C19.031 6.60771 18.9785 6.55178 18.9145 6.51072L10.3942 1.02999L10.3678 1.00656C10.2571 0.907974 10.1125 0.853308 9.96251 0.853308C9.81251 0.853308 9.66794 0.907974 9.55722 1.00656L9.53175 1.02953L9.50299 1.0479L1.08455 6.50934L0.841233 6.15333Z" fill="#231815"/>
<path d="M18.8018 19.5045L12.2751 11.9663C12.1767 11.8525 12.054 11.7611 11.9156 11.6983C11.7771 11.6355 11.6262 11.603 11.4735 11.6029H8.45566C8.30293 11.603 8.15206 11.6355 8.0136 11.6983C7.87513 11.761 7.75241 11.8525 7.65403 11.9663L1.12317 19.5045L0.452637 18.9533L6.97925 11.4151C7.16015 11.2059 7.38583 11.0378 7.64047 10.9226C7.8951 10.8073 8.17253 10.7478 8.4533 10.748H11.4712C11.7519 10.7477 12.0293 10.8072 12.2838 10.9225C12.5384 11.0377 12.764 11.2058 12.9447 11.4151L19.4718 18.9533L18.8018 19.5045Z" fill="#231815"/>
<path d="M0.646834 8.19957L0.232422 8.95312L6.82587 12.3943L7.24028 11.6408L0.646834 8.19957Z" fill="#231815"/>
<path d="M19.2873 8.19697L12.6938 11.6382L13.1083 12.3917L19.7017 8.95053L19.2873 8.19697Z" fill="#231815"/>
<path d="M2.30604 9.38811H1.79395V7.19922H18.2065V9.37295H17.6944V7.69809H2.30604V9.38811Z" fill="#231815"/>
</g>
<defs>
<clipPath id="clip0_81_622">
<rect width="20" height="20" fill="white"/>
</clipPath>
</defs>
</svg>
