<svg width="113" height="41" viewBox="0 0 113 41" fill="none" xmlns="http://www.w3.org/2000/svg">
<path d="M12.3082 16.1347C10.6125 16.1347 8.99028 16.1592 7.37414 16.1286C6.0641 16.1041 5.37234 15.4669 5.36622 14.3703C5.3601 13.3226 5.97839 12.7161 7.20273 12.6916C8.75765 12.661 10.3187 12.7284 11.8797 12.6977C14.0223 12.6548 16.1588 12.5139 18.3014 12.5078C19.0911 12.5078 19.9237 12.6732 20.6705 12.9428C21.6928 13.3043 22.0295 14.1497 21.7296 15.1483C21.4725 16.006 20.646 16.4594 19.6543 16.3614C18.4422 16.2388 17.224 16.1714 15.8895 16.0673C15.8895 16.6187 15.8895 16.9618 15.8895 17.3048C15.9384 23.2536 15.8099 29.1902 14.6651 35.0532C14.4325 36.254 14.0774 37.4609 13.5877 38.5821C12.7796 40.4139 11.4696 41.1736 9.54735 40.9653C6.25999 40.6161 3.67663 39.0048 1.77277 36.3275C0.989191 35.2309 0.732078 33.9566 0.897365 32.6149C1.0198 31.6224 1.65646 31.071 2.58696 31.0772C3.50522 31.0833 4.03781 31.5673 4.22146 32.5475C4.69895 35.1206 6.76197 37.0811 9.36982 37.4793C10.2514 37.6141 10.8696 37.3507 11.0594 36.4623C11.3961 34.8817 11.843 33.2888 11.9287 31.6898C12.1797 26.8254 12.2776 21.9548 12.4307 17.0843C12.4429 16.8392 12.3695 16.5819 12.3082 16.1347Z" fill="#111112"/>
<path d="M58.0733 23.812C58.7895 23.1626 59.4629 22.5071 60.1975 21.919C60.7484 21.4717 61.3361 21.0245 61.9728 20.7427C65.2051 19.303 68.0088 20.9326 68.5108 24.6023C68.719 26.1401 68.6516 27.7146 68.7679 29.2646C68.9822 32.046 69.2393 34.8274 69.4719 37.6026C69.5087 38.0192 69.5393 38.4542 69.4903 38.8647C69.3801 39.7592 68.7006 40.3595 67.8313 40.3473C66.9375 40.3289 66.3437 39.8694 66.2029 38.975C65.6397 35.3726 65.2847 31.758 65.4867 28.1005C65.5479 27.0468 65.4255 25.9563 65.2112 24.9209C64.9847 23.7936 64.2991 23.3587 63.2767 23.861C62.2115 24.3879 61.1341 25.1353 60.3934 26.0543C58.0855 28.9215 57.3325 32.3033 57.5896 35.9424C57.6447 36.6898 57.6815 37.4372 57.6753 38.1847C57.6692 39.2262 57.1244 39.8143 56.1878 39.8817C55.2083 39.9491 54.4614 39.3732 54.4247 38.3501C54.3451 35.9485 54.3023 33.5469 54.3206 31.1515C54.3451 28.1005 54.4675 25.0557 54.5043 22.0047C54.5165 20.7304 55.0552 19.9095 56.0898 19.8053C57.0019 19.7134 57.7059 20.3751 57.8896 21.5881C57.9998 22.3294 58.0182 23.1014 58.0733 23.812Z" fill="#111112"/>
<path d="M108.629 22.9224C106.83 23.5841 105.164 24.1294 103.567 24.8155C102.979 25.0667 102.452 25.6058 102.055 26.1327C101.528 26.825 101.718 27.1007 102.557 27.3396C104.393 27.8543 106.291 28.2402 108.036 28.9754C110.435 29.9863 111.623 31.9713 111.647 34.6057C111.666 36.6152 110.778 38.1652 108.984 39.0168C105.501 40.6709 101.981 40.481 98.5712 38.7901C97.9284 38.4715 97.3407 37.6873 97.1204 36.9889C96.9734 36.511 97.3836 35.7023 97.7815 35.2551C98.2835 34.6914 98.9936 34.8078 99.6303 35.2857C101.889 36.9889 104.387 36.9766 106.934 36.1495C108.268 35.7207 108.623 34.7037 108.017 33.4416C107.534 32.4246 106.64 31.8916 105.617 31.6037C104.344 31.2422 103.04 30.9788 101.755 30.6296C100.187 30.2007 98.761 29.5145 98.4916 27.695C98.1856 25.6303 98.6569 23.7128 100.481 22.5426C101.742 21.7339 103.224 21.2683 104.638 20.7291C105.911 20.2452 107.215 19.8469 108.513 19.4487C109.033 19.2894 109.584 19.1546 110.123 19.1485C110.87 19.1424 111.458 19.5345 111.617 20.3003C111.837 21.3786 112.021 22.4691 112.137 23.5657C112.247 24.6072 111.678 25.3424 110.729 25.4588C109.915 25.5568 109.242 25.3179 109.003 24.4173C108.905 23.9884 108.795 23.5535 108.629 22.9224Z" fill="#111112"/>
<path d="M39.9487 30.0128C39.9243 32.1632 39.5753 34.1298 38.5775 35.9433C37.0287 38.7553 34.7269 40.3421 31.4457 40.0664C28.1583 39.7907 26.0769 37.7996 25.0975 34.7976C23.8792 31.0727 24.32 27.452 26.6707 24.2294C28.6848 21.4725 31.4579 20.4494 34.8065 21.0988C36.4777 21.4235 37.6286 22.5079 38.4612 23.9415C39.5753 25.8468 39.9365 27.9482 39.9487 30.0128ZM36.8879 30.4294C36.7287 29.3757 36.6553 28.3036 36.3859 27.2804C35.5717 24.1866 32.3395 23.335 30.0316 25.565C28.0114 27.5194 27.2339 31.6364 28.4032 34.185C29.6214 36.8439 32.7986 37.481 34.9657 35.4899C36.4532 34.1237 36.8389 32.3654 36.8879 30.4294Z" fill="#111112"/>
<path d="M90.9197 38.8233C88.7587 39.7423 86.5855 40.165 84.3144 39.7116C81.6514 39.1725 80.4638 37.8553 80.0904 34.9759C79.5762 31.0672 79.3007 27.1524 79.8455 23.2192C79.9129 22.7352 79.9741 22.2512 80.0843 21.7794C80.3108 20.836 80.9475 20.3887 81.8535 20.4929C82.7472 20.597 83.341 21.1974 83.3471 22.1164C83.3533 22.7964 83.3104 23.4826 83.2002 24.1565C82.6187 27.6302 82.8635 31.0917 83.3533 34.547C83.5308 35.7846 83.9226 36.3298 85.2326 36.3237C86.9957 36.3176 88.7587 35.9929 90.5156 35.7294C90.6932 35.7049 90.9258 35.2087 90.9258 34.9269C90.9441 32.5559 90.8829 30.1788 90.9135 27.8079C90.938 26.0251 91.0482 24.2362 91.1707 22.4533C91.2257 21.7182 91.3237 20.9401 92.1807 20.6032C93.4051 20.1192 94.5927 20.9585 94.5743 22.2941C94.507 27.6547 94.4457 33.0154 94.3907 38.3761C94.3784 39.4727 94.0111 40.0547 93.1112 40.2875C92.2542 40.5142 91.6665 40.1772 91.1339 39.148C91.0911 39.0622 91.0299 38.9826 90.9197 38.8233Z" fill="#111112"/>
<path d="M106.216 3.07402C105.004 4.64241 103.792 6.21692 102.55 7.82819C102.397 8.061 101.368 9.48848 100.646 9.93571C99.8866 10.4075 99.2744 9.99697 98.7663 9.43946C97.9828 8.57563 97.3155 7.58926 96.434 6.84183C94.2975 5.01613 91.6958 4.17067 88.9655 3.77857C84.2089 3.0924 79.5197 3.38035 74.9712 5.08964C73.0612 5.80645 71.3472 6.80507 69.933 8.31219C69.3821 8.90033 68.7332 9.4027 68.0904 9.89282C67.466 10.3646 66.8538 10.1624 66.3274 9.6784C65.7886 9.17602 65.6662 8.594 66.0702 7.92622C67.3007 5.88609 69.1066 4.46474 71.1452 3.34359C76.1282 0.611169 81.4541 -0.418084 87.1106 0.151681C90.5387 0.494765 93.8751 1.11967 96.7952 3.04339C98.0501 3.87047 99.1398 4.96099 100.346 5.97186C101.601 5.01 103.566 3.53964 104.919 2.50426L102.899 5.28569C102.905 5.27956 106.192 3.0924 106.216 3.07402Z" fill="#111112"/>
<path d="M42.3309 0.00539266C45.404 0.0482778 48.875 0.446496 52.1747 1.80657C54.8621 2.91545 57.0598 4.62473 58.5474 7.1672C58.7739 7.55317 59.5024 9.15217 58.3515 9.86897C57.2006 10.5919 56.2885 9.34209 56.0987 9.04802C54.1704 6.08283 51.2319 4.69825 47.9384 4.03047C42.7104 2.97059 37.5437 3.24015 32.5116 5.14548C30.6628 5.84389 29.01 6.83025 27.6448 8.29447C27.1367 8.83972 26.549 9.30533 25.9675 9.77707C25.3124 10.3039 24.6452 10.2549 24.033 9.69743C23.4086 9.12154 23.3902 8.48439 23.8432 7.77372C25.0859 5.83164 26.8367 4.44094 28.8202 3.35043C32.8789 1.1204 37.2254 -0.0436189 42.3309 0.00539266Z" fill="#111112"/>
<path d="M45.4563 22.6841C45.5114 21.7283 46.197 21.0973 47.103 21.1096C48.0151 21.1157 48.6885 21.7467 48.7191 22.7147C48.7497 23.6888 48.6885 24.6629 48.6763 25.637C48.6212 29.4661 48.5661 33.2951 48.511 37.1242C48.4865 38.6496 47.2499 39.5257 46.0746 38.7722C45.6583 38.5087 45.2727 37.8655 45.2543 37.3753C45.1625 35.2678 45.2176 33.1603 45.2176 31.0467C45.1563 31.0467 45.3033 25.4655 45.4563 22.6841Z" fill="#111112"/>
<path d="M49.6318 14.9098C49.6195 16.031 48.7747 16.8397 47.63 16.8152C46.4791 16.7968 45.6588 15.9697 45.671 14.8424C45.6833 13.7457 46.577 12.8941 47.6912 12.9064C48.7931 12.9248 49.6379 13.8009 49.6318 14.9098Z" fill="#111112"/>
</svg>
