<svg width="100" height="100" viewBox="0 0 100 100" fill="none" xmlns="http://www.w3.org/2000/svg">
<rect opacity="0.6" width="100" height="100" fill="black"/>
<path d="M64.8 37.4061C65.0132 37.1885 65.2678 37.0156 65.5487 36.8976C65.8296 36.7796 66.1312 36.7188 66.4359 36.7188C66.7406 36.7188 67.0422 36.7796 67.3231 36.8976C67.604 37.0156 67.8586 37.1885 68.0718 37.4061C68.9656 38.3092 68.9781 39.7686 68.1031 40.6874L49.625 62.5311C49.4152 62.7615 49.1606 62.9466 48.8768 63.0752C48.593 63.2038 48.2859 63.2732 47.9744 63.279C47.6628 63.2849 47.3534 63.2271 47.0649 63.1093C46.7765 62.9914 46.5151 62.8159 46.2968 62.5936L35.0531 51.1999C34.6195 50.7576 34.3766 50.163 34.3766 49.5436C34.3766 48.9242 34.6195 48.3296 35.0531 47.8874C35.2664 47.6698 35.5209 47.4969 35.8018 47.3789C36.0827 47.2609 36.3843 47.2001 36.689 47.2001C36.9937 47.2001 37.2953 47.2609 37.5763 47.3789C37.8572 47.4969 38.1117 47.6698 38.325 47.8874L47.8625 57.553L64.7375 37.4749C64.7569 37.4507 64.7778 37.4277 64.8 37.4061Z" fill="white"/>
</svg>
