<svg width="20" height="20" viewBox="0 0 20 20" fill="none" xmlns="http://www.w3.org/2000/svg">
<path d="M10 0.25C8.07164 0.25 6.18657 0.821828 4.58319 1.89317C2.97982 2.96452 1.73013 4.48726 0.992179 6.26884C0.254225 8.05042 0.061142 10.0108 0.437348 11.9021C0.813554 13.7934 1.74215 15.5307 3.10571 16.8943C4.46928 18.2579 6.20656 19.1865 8.09787 19.5627C9.98919 19.9389 11.9496 19.7458 13.7312 19.0078C15.5127 18.2699 17.0355 17.0202 18.1068 15.4168C19.1782 13.8134 19.75 11.9284 19.75 10C19.747 7.41505 18.7188 4.93683 16.891 3.109C15.0632 1.28116 12.585 0.252977 10 0.25V0.25ZM14.6435 8.29281L9.14304 13.5428C9.00319 13.6759 8.81754 13.7501 8.6245 13.7501C8.43147 13.7501 8.24582 13.6759 8.10597 13.5428L5.35647 10.9178C5.21251 10.7803 5.12907 10.5912 5.12452 10.3922C5.11997 10.1931 5.19467 10.0004 5.33219 9.85647C5.46971 9.71251 5.65879 9.62907 5.85783 9.62452C6.05688 9.61996 6.24957 9.69466 6.39354 9.83219L8.6245 11.9629L13.6064 7.20728C13.7506 7.07106 13.9428 6.99744 14.1411 7.00251C14.3394 7.00758 14.5276 7.09093 14.6646 7.23434C14.8017 7.37775 14.8764 7.56956 14.8724 7.76788C14.8685 7.96619 14.7862 8.15488 14.6435 8.29272V8.29281Z" fill="#333434"/>
</svg>
