<svg width="29" height="28" viewBox="0 0 29 28" fill="none" xmlns="http://www.w3.org/2000/svg">
<path d="M9.44925 27.9998C6.89499 27.9998 4.48353 27.0229 2.65957 25.2487C0.212027 22.8678 -0.120851 20.2397 0.0311036 18.4541C0.231338 16.1009 1.31586 14.2796 2.18388 13.4353L15.564 0.41954C15.6996 0.281075 15.8623 0.170389 16.0425 0.093996C16.2227 0.0176032 16.4168 -0.0229527 16.6133 -0.0252841C16.8099 -0.0276154 17.0049 0.0083248 17.187 0.0804208C17.369 0.152517 17.5344 0.259312 17.6734 0.39452C17.8124 0.529729 17.9222 0.690619 17.9963 0.86772C18.0704 1.04482 18.1074 1.23456 18.105 1.42576C18.1026 1.61696 18.0609 1.80576 17.9824 1.98105C17.9038 2.15634 17.79 2.31458 17.6477 2.44645L4.26907 15.4636C3.73087 15.9872 3.11543 17.2374 2.98126 18.6133C2.81 20.3653 3.40359 21.9156 4.74475 23.2203C6.36849 24.8023 8.19804 25.1315 9.44671 25.1315C9.5448 25.1315 9.64441 25.1315 9.743 25.1256C11.4628 25.0549 12.7455 24.4048 13.148 24.0118L25.4406 12.0555L20.2828 7.03863L8.80789 18.199C8.60969 18.3913 8.1584 19.0518 8.66356 19.5432C8.94714 19.819 9.23225 19.9584 9.51227 19.9584H9.56309C9.82889 19.9416 10.1297 19.7948 10.3656 19.5629L19.402 10.7775C19.4973 10.6849 19.6266 10.6328 19.7613 10.6328C19.8961 10.6328 20.0254 10.6849 20.1207 10.7775L21.4872 12.1064C21.5825 12.1991 21.636 12.3248 21.636 12.4559C21.636 12.587 21.5825 12.7127 21.4872 12.8054L12.4548 21.5918C11.7047 22.3215 10.7467 22.7575 9.75621 22.8193C9.67439 22.8243 9.59105 22.8273 9.50872 22.8273C8.42216 22.8273 7.43725 22.4046 6.58092 21.5716C5.65699 20.6738 5.29413 19.5086 5.55789 18.2909C5.73706 17.4921 6.14187 16.7578 6.72677 16.1706L19.2404 3.9958C19.5168 3.72712 19.8915 3.57619 20.2823 3.57619C20.673 3.57619 21.0477 3.72712 21.3241 3.9958L28.5681 11.0415C28.8443 11.3104 28.9995 11.6749 28.9995 12.055C28.9995 12.4351 28.8443 12.7996 28.5681 13.0684L15.2347 26.0401C14.1055 27.1381 11.9984 27.9044 9.8665 27.9914C9.72623 27.9969 9.58596 27.9998 9.44925 27.9998Z" fill="black"/>
</svg>
