<svg width="22" height="16" viewBox="0 0 22 16" fill="none" xmlns="http://www.w3.org/2000/svg">
<g clip-path="url(#clip0_81_645)">
<path d="M20.4398 0.472656H1.56076C0.965481 0.472656 0.48291 0.944931 0.48291 1.52751V14.4731C0.48291 15.0557 0.965481 15.528 1.56076 15.528H20.4398C21.035 15.528 21.5176 15.0557 21.5176 14.4731V1.52751C21.5176 0.944931 21.035 0.472656 20.4398 0.472656Z" fill="white"/>
<path d="M20.4398 15.9999H1.55929C1.14553 15.9996 0.748781 15.8387 0.456157 15.5524C0.163533 15.2661 -0.00105268 14.8779 -0.00146484 14.473V1.52533C4.47865e-05 1.12092 0.165257 0.733583 0.457987 0.448145C0.750717 0.162707 1.1471 0.00243871 1.56033 0.00244141H20.4409C20.8536 0.00324285 21.2493 0.16385 21.5414 0.449187C21.8335 0.734524 21.9984 1.1214 22.0001 1.52533V14.4699C22.0003 14.8752 21.8362 15.2641 21.5436 15.551C21.251 15.8379 20.854 15.9994 20.4398 15.9999ZM1.55929 0.944603C1.40199 0.945004 1.25125 1.0063 1.13997 1.11511C1.0287 1.22391 0.965933 1.37139 0.965386 1.52533V14.4699C0.965523 14.6243 1.02825 14.7723 1.13979 14.8815C1.25134 14.9906 1.40258 15.052 1.56033 15.0522H20.4409C20.5986 15.0519 20.7497 14.9905 20.8613 14.8813C20.9728 14.7722 21.0355 14.6242 21.0358 14.4699V1.52533C21.0355 1.37099 20.9728 1.22305 20.8613 1.11391C20.7497 1.00478 20.5986 0.943349 20.4409 0.94308L1.55929 0.944603Z" fill="#231815"/>
<path d="M11 10.4645C10.6077 10.4655 10.2284 10.3272 9.9325 10.0751L0.0253906 3.7719L0.55135 2.97949L10.5248 9.32487L10.5549 9.35178C10.6767 9.46072 10.8358 9.52112 11.0008 9.52112C11.1658 9.52112 11.3248 9.46072 11.4466 9.35178L11.4767 9.32487L11.5109 9.30304L21.4491 2.97949L21.9756 3.7719L12.0685 10.0751C11.7722 10.3272 11.3926 10.4656 11 10.4645Z" fill="#231815"/>
<path d="M7.25466 7.48489L0.507812 14.8311L1.22573 15.4626L7.97258 8.11641L7.25466 7.48489Z" fill="#231815"/>
<path d="M14.6623 7.4886L13.9443 8.12012L20.6912 15.4663L21.4091 14.8348L14.6623 7.4886Z" fill="#231815"/>
</g>
<defs>
<clipPath id="clip0_81_645">
<rect width="22" height="16" fill="white"/>
</clipPath>
</defs>
</svg>
